# xmcd
#
# Track frame offsets: 
#        150
#        18143
#        32725
#        48614
#        64938
#        83307
#        103682
#        121234
#        139380
#        158715
#        174169
#        187150
#
# Disc length: 2686 seconds
#
# Revision: 0
# Processed by: cddbd v1.5.2PL0 Copyright (c) Steve Scherf et al.
# Submitted via: ExactAudioCopy v0.99pb4
#
DISCID=970a7c0c
DTITLE=Reba McEntire - If You See Him
DYEAR=1998
DGENRE=Country
TTITLE0=If You See Him, If You See Her
TTITLE1=One Honest Heart
TTITLE2=I Wouldn't Know
TTITLE3=I'll Give You Something To Mis
TTITLE4=Invisible
TTITLE5=Up and Flying
TTITLE6=Forever Love
TTITLE7=Face to Face
TTITLE8=Heart Hush
TTITLE9=Lonely Alone
TTITLE10=Wrong Night
TTITLE11=All This Time
EXTD=
EXTT0=
EXTT1=
EXTT2=
EXTT3=
EXTT4=
EXTT5=
EXTT6=
EXTT7=
EXTT8=
EXTT9=
EXTT10=
EXTT11=
PLAYORDER=
